# xmcd
#
# Track frame offsets: 
#        150
#        17622
#        36945
#        57281
#        74902
#        95756
#        114436
#        130892
#        148081
#        164431
#        186452
#        208991
#        225673
#        227113
#        243305
#        264157
#        280949
#        299498
#        316046
#
# Disc length: 4531 seconds
#
# Revision: 2
# Processed by: cddbd v1.4PL0 Copyright (c) Steve Scherf et al.
# Submitted via: ExactAudioCopy v0.95a3
#
DISCID=2711b113
DTITLE=Various Artist - Vol.1_09.09.
DYEAR=2003
DGENRE=R&B
TTITLE0=The Jumpoff
TTITLE1=I Know What You Want
TTITLE2=Move Bitch
TTITLE3=Stole
TTITLE4=Tell Me
TTITLE5=Po` Folks
TTITLE6=That Girl
TTITLE7=Hit the Freeway
TTITLE8=Give me the light
TTITLE9=Pimp Juice
TTITLE10=Cot` Damn ft Ab-Liva Roscoe
TTITLE11=21 Questions feat. Nate Dogg
TTITLE12=butta promo
TTITLE13=X Gon Give it to Ya (Lp Versio
TTITLE14=Mesmerize f. Ashanti
TTITLE15=In The Club
TTITLE16=Who Am I (What`s My Name)?
TTITLE17=Hey Ma
TTITLE18=Home ft Phil Collins (Album)
EXTD=
EXTT0=
EXTT1=
EXTT2=
EXTT3=
EXTT4=
EXTT5=
EXTT6=
EXTT7=
EXTT8=
EXTT9=
EXTT10=
EXTT11=
EXTT12=
EXTT13=
EXTT14=
EXTT15=
EXTT16=
EXTT17=
EXTT18=
PLAYORDER=
